<!DOCTYPE svg PUBLIC "-//W3C//DTD SVG 20010904//EN" "http://www.w3.org/TR/2001/REC-SVG-20010904/DTD/svg10.dtd">
<svg version="1.0" xmlns="http://www.w3.org/2000/svg" width="480px" height="120px" viewBox="0 0 4800 1200" preserveAspectRatio="xMidYMid meet">
<g id="layer101" fill="#000000" stroke="none">
 <path d="M909 987 c-74 -50 -106 -143 -96 -281 7 -111 44 -182 110 -215 57 -28 116 -24 161 12 l28 23 -25 29 c-24 29 -26 29 -44 12 -11 -9 -34 -17 -51 -17 -61 0 -92 65 -92 191 0 88 12 134 42 166 27 29 74 30 104 2 l22 -20 22 31 c19 26 20 33 8 47 -37 46 -136 56 -189 20z"/>
 <path d="M2145 996 c-16 -7 -41 -25 -54 -40 l-25 -27 26 -26 27 -26 36 31 c41 37 76 41 105 12 22 -22 27 -78 10 -110 -6 -11 -39 -33 -75 -50 -75 -36 -98 -68 -98 -140 0 -65 24 -104 78 -130 60 -29 122 -21 168 20 l32 29 -26 26 -26 27 -26 -26 c-53 -53 -121 -19 -115 57 3 40 6 44 60 72 31 17 68 41 83 55 69 65 46 210 -40 246 -42 17 -100 18 -140 0z"/>
 <path d="M2523 1000 c-45 -18 -53 -55 -53 -254 l0 -185 -32 -3 c-29 -3 -33 -7 -36 -35 -3 -32 -2 -33 32 -33 l36 0 0 -70 0 -70 40 0 40 0 0 69 0 70 43 3 c39 3 42 5 42 33 0 28 -3 30 -42 33 l-43 3 0 173 c0 191 4 204 61 198 26 -3 29 -1 29 27 0 25 -6 34 -26 41 -30 12 -61 12 -91 0z"/>
 <path d="M2779 987 c-40 -27 -75 -76 -89 -126 -16 -57 -12 -192 7 -251 33 -102 118 -157 205 -131 79 24 113 82 125 214 l6 67 -137 0 -136 0 6 43 c7 46 29 101 47 116 7 5 25 13 40 16 24 6 33 2 65 -33 36 -39 38 -40 65 -26 33 18 34 28 1 71 -50 66 -140 84 -205 40z m161 -322 c0 -42 -29 -102 -56 -114 -49 -22 -114 41 -114 111 l0 28 85 0 c84 0 85 0 85 -25z"/>
 <path d="M1170 609 l0 -380 43 3 42 3 3 148 3 148 30 -25 c17 -14 42 -29 57 -33 35 -8 101 16 124 48 27 36 39 141 36 315 l-3 149 -42 3 -43 3 0 -185 c0 -225 -8 -255 -71 -256 -29 0 -62 31 -78 73 -6 16 -11 102 -11 198 l0 169 -45 0 -45 0 0 -381z"/>
 <path d="M1640 740 l0 -250 40 0 c36 0 40 2 40 25 l0 25 28 -30 c15 -16 42 -33 60 -36 l32 -6 0 46 c0 40 -3 46 -21 46 -70 0 -91 58 -97 268 l-4 162 -39 0 -39 0 0 -250z"/>
 <path d="M1910 740 l0 -250 40 0 40 0 0 250 0 250 -40 0 -40 0 0 -250z"/>
 <path d="M3130 610 l0 -380 40 0 40 0 0 380 0 380 -40 0 -40 0 0 -380z"/>
 <path d="M247 832 c-330 -155 -331 -134 12 -294 139 -65 255 -118 257 -118 2 0 4 17 4 38 l0 37 -205 95 -205 95 93 45 c50 25 143 69 205 98 112 51 113 52 110 84 -2 17 -7 33 -13 34 -5 1 -122 -50 -258 -114z"/>
 <path d="M4262 915 l3 -36 195 -91 c107 -50 198 -94 202 -97 4 -4 -83 -49 -195 -102 l-202 -94 -3 -38 c-2 -20 0 -37 5 -37 4 0 123 54 263 120 338 158 337 136 5 292 -137 64 -256 117 -263 118 -9 0 -12 -11 -10 -35z"/>
 <path d="M1904 376 c-33 -52 31 -111 77 -70 37 34 14 94 -36 94 -15 0 -31 -10 -41 -24z"/>
 </g>
<g id="layer102" fill="#3ec7c5" stroke="none">
 <path d="M485 1038 c-11 -6 -21 -12 -23 -14 -2 -1 98 -154 222 -341 l226 -338 0 63 0 62 -192 290 c-106 159 -197 289 -203 289 -5 0 -19 -5 -30 -11z"/>
 <path d="M3545 975 c-14 -13 -25 -34 -25 -47 0 -13 20 -97 45 -188 25 -91 45 -171 45 -177 0 -8 -14 -13 -36 -13 -28 0 -35 -4 -32 -17 2 -14 23 -20 96 -31 51 -8 95 -12 98 -9 3 3 -20 94 -51 203 -31 108 -55 206 -53 217 3 17 10 13 49 -27 38 -40 47 -45 57 -33 23 27 -103 147 -153 147 -9 0 -27 -11 -40 -25z"/>
 <path d="M3907 986 c-52 -19 -73 -40 -93 -92 -47 -123 50 -306 202 -380 47 -23 64 -26 128 -22 63 3 79 7 102 28 91 84 65 251 -58 373 -89 89 -197 124 -281 93z m130 -43 c40 -19 94 -94 124 -173 25 -65 35 -165 20 -203 -24 -61 -100 -52 -158 18 -103 125 -140 311 -70 360 27 19 41 19 84 -2z"/>
 <path d="M3270 968 c-11 -12 -20 -28 -20 -36 0 -19 55 -72 75 -72 32 0 55 20 55 48 0 32 -7 42 -40 65 -32 22 -45 21 -70 -5z"/>
 <path d="M3675 365 c-14 -13 -25 -33 -25 -45 0 -25 42 -70 65 -70 24 0 65 46 65 74 0 25 -41 66 -67 66 -8 0 -25 -11 -38 -25z"/>
 </g>

</svg>